<svg width="24" height="24" viewBox="0 0 24 24" fill="none" xmlns="http://www.w3.org/2000/svg">
<path d="M10.0667 13.4083L12 11.9417L13.925 13.4083L13.1917 11.0333L15.125 9.5H12.7584L12 7.15833L11.2417 9.5H8.87504L10.8 11.0333L10.0667 13.4083ZM18.6667 10.3333C18.6667 6.65 15.6834 3.66666 12 3.66666C8.31671 3.66666 5.33337 6.65 5.33337 10.3333C5.33337 12.025 5.96671 13.5583 7.00004 14.7333V21.1667L12 19.5L17 21.1667V14.7333C18.0334 13.5583 18.6667 12.025 18.6667 10.3333ZM12 5.33333C14.7584 5.33333 17 7.575 17 10.3333C17 13.0917 14.7584 15.3333 12 15.3333C9.24171 15.3333 7.00004 13.0917 7.00004 10.3333C7.00004 7.575 9.24171 5.33333 12 5.33333ZM12 17.8333L8.66671 18.6833V16.1C9.65004 16.6667 10.7834 17 12 17C13.2167 17 14.35 16.6667 15.3334 16.1V18.6833L12 17.8333Z" fill="#FFA726"/>
</svg>
