<svg width="35" height="35" viewBox="0 0 35 35" fill="none" xmlns="http://www.w3.org/2000/svg">
<path d="M23.3333 4.37503C19.3083 4.37503 16.0417 7.6417 16.0417 11.6667V23.3334C16.0417 25.7542 14.0875 27.7084 11.6667 27.7084C9.24583 27.7084 7.29167 25.7542 7.29167 23.3334V13.125H8.50208C10.85 13.125 12.9646 11.4042 13.125 9.05628C13.3 6.5917 11.4333 4.53545 9.04167 4.37503C6.475 4.21461 4.375 6.44586 4.375 9.02711V23.3334C4.375 27.3584 7.64167 30.625 11.6667 30.625C15.6917 30.625 18.9583 27.3584 18.9583 23.3334V11.6667C18.9583 9.24586 20.9125 7.2917 23.3333 7.2917C25.7542 7.2917 27.7083 9.24586 27.7083 11.6667V21.875H26.4979C24.15 21.875 22.0354 23.5959 21.875 25.9438C21.7 28.4084 23.5667 30.4646 25.9583 30.625C28.525 30.8 30.625 28.5542 30.625 25.9875V11.6667C30.625 7.6417 27.3583 4.37503 23.3333 4.37503ZM7.29167 8.75003C7.29167 7.94795 7.94792 7.2917 8.75 7.2917C9.55208 7.2917 10.2083 7.94795 10.2083 8.75003C10.2083 9.55211 9.55208 10.2084 8.75 10.2084H7.29167V8.75003ZM27.7083 26.25C27.7083 27.0521 27.0521 27.7084 26.25 27.7084C25.4479 27.7084 24.7917 27.0521 24.7917 26.25C24.7917 25.4479 25.4479 24.7917 26.25 24.7917H27.7083V26.25Z" fill="#EF6C00"/>
</svg>
