<svg width="24" height="24" viewBox="0 0 24 24" fill="none" xmlns="http://www.w3.org/2000/svg">
<path d="M12 3.66669C7.39996 3.66669 3.66663 7.40002 3.66663 12C3.66663 16.6 7.39996 20.3334 12 20.3334C16.6 20.3334 20.3333 16.6 20.3333 12C20.3333 7.40002 16.6 3.66669 12 3.66669ZM12 18.6667C8.32496 18.6667 5.33329 15.675 5.33329 12C5.33329 8.32502 8.32496 5.33335 12 5.33335C15.675 5.33335 18.6666 8.32502 18.6666 12C18.6666 15.675 15.675 18.6667 12 18.6667ZM15.825 8.31669L10.3333 13.8084L8.17496 11.6584L6.99996 12.8334L10.3333 16.1667L17 9.50002L15.825 8.31669Z" fill="#EF6C00"/>
</svg>
