<svg width="144" height="40" viewBox="0 0 144 40" fill="none" xmlns="http://www.w3.org/2000/svg">
<path fill-rule="evenodd" clip-rule="evenodd" d="M20.7647 20.5435C21.2018 21.1126 21.8845 21.3862 22.5682 21.4343C22.6152 21.5365 22.6617 21.6383 22.7081 21.7405C22.0258 21.903 21.3121 22.059 20.5668 22.207C15.5837 23.1104 10.6666 22.3853 9.72445 21.2237C8.82471 20.114 13.9373 17.3664 19.6525 15.618C19.7232 15.6007 19.7929 15.5839 19.8631 15.5671C20.0896 16.0087 20.3047 16.4336 20.4934 16.8136C20.0317 17.1073 19.5978 17.4803 19.1922 17.9332C21.8782 18.5663 24.2483 17.6853 25.6143 16.1964C25.0701 15.9933 24.6284 16.0064 24.0404 15.9359C24.0008 15.5536 23.9616 15.1618 23.9233 14.7659C29.4183 13.955 32.2497 14.8005 32.3349 15.9649C32.4799 17.9416 29.6695 19.8044 24.6339 21.2387C24.617 21.1373 24.6001 21.036 24.5833 20.9343C25.1047 20.6149 25.5263 20.1345 25.6986 19.4407C28.1626 18.6531 30.0801 17.5999 30.1622 16.5335C30.3053 15.7118 29.1567 15.6329 26.6754 15.9471C27.2579 15.977 27.5158 16.1395 27.4557 16.4845C27.3632 17.6928 25.2984 18.3454 21.4201 19.261C18.6735 19.5038 17.0732 19.8446 16.3963 18.9178C16.3526 18.4734 16.6821 18.0695 17.384 17.7058C15.5312 18.3422 14.6461 19.0831 14.729 19.9286C15.3854 20.8273 17.9283 20.9282 20.7656 20.5435H20.7647ZM18.9884 5.04004C19.5992 7.87722 19.8699 9.73072 20.019 10.8946C8.72397 13.3863 -2.17265 20.9338 8.11641 24.9909C8.22762 25.0404 8.1164 24.9909 8.34657 25.0782C11.8799 26.3715 16.9424 26.1287 23.9693 24.6338C24.1211 24.9984 24.2688 25.3611 24.4128 25.7216C22.1849 26.4326 20.0422 26.9695 18.364 27.2879C27.2282 27.2623 22.3394 27.3206 25.04 27.3393C26.045 30.0187 26.8285 32.5636 27.3855 34.96C26.7752 32.4557 26.2282 29.9062 25.7305 27.3426C26.5678 27.3454 27.829 27.3458 29.7328 27.3426C36.6422 23.4157 39.7183 21.1854 39.448 17.5896C38.9266 15.11 36.6358 13.3635 32.5761 12.3508C42.3246 17.534 33.628 22.6127 25.365 25.4092C25.3012 25.0628 25.2383 24.7164 25.1758 24.37C25.8176 24.2253 26.4748 24.0707 27.148 23.9068C32.8632 22.305 35.4448 18.9911 35.3058 16.9546C33.9216 20.0776 30.2274 21.7242 25.7852 22.8793C25.5022 22.9427 25.2223 23.0039 24.9447 23.0637C24.8928 22.7658 24.8417 22.4684 24.7907 22.1705C31.3021 20.4473 35.0282 18.2208 34.8477 15.7506C34.7356 14.2225 31.4443 12.3354 23.8107 13.5899C23.7524 12.9671 23.6949 12.3461 23.6384 11.7457C27.8408 11.0529 31.9895 11.0954 35.1431 12.3984C32.2442 9.88011 26.8627 9.61539 21.3791 10.6215C20.8718 9.52342 20.0304 7.67507 19.0618 5.04004H18.9884ZM20.3348 12.433C20.6976 13.426 20.7938 13.7752 20.9173 14.1721C20.8809 14.1809 20.844 14.1898 20.8075 14.1987C19.8713 13.7612 19.4889 13.3378 18.488 12.9377C19.0974 12.7575 19.714 12.5884 20.3348 12.433ZM18.488 12.9377C18.7487 13.426 19.0395 13.9779 19.3307 14.5372C12.7505 16.1782 6.60043 20.4128 7.6287 21.6808C8.76682 23.0842 14.4774 24.2453 20.4989 23.1538C21.4 22.975 22.2647 22.7877 23.0919 22.5935C23.2081 22.8554 23.3226 23.116 23.4351 23.376C14.9337 25.0638 9.19572 24.8994 6.71485 22.1841C5.40535 20.7508 6.54848 18.9654 8.92498 17.1031C11.3794 15.547 14.7979 14.0301 18.488 12.9377ZM23.153 11.8284C22.8804 12.4213 22.6343 13.0768 22.3039 13.8672C22.2656 13.8751 22.2268 13.8831 22.1885 13.891L21.8636 12.08C22.2929 11.989 22.7227 11.9049 23.153 11.8284ZM22.0627 15.6791L22.349 15.3295L22.2291 16.2272L21.5472 15.5937L22.0627 15.6791ZM33.252 27.3234C34.3815 27.3015 35.2251 27.2683 36.5624 27.2725C43.6965 21.6883 45.0602 17.2506 36.314 12.8588C45.047 18.6993 38.5542 22.9955 37.0952 24.3522C34.8104 26.477 33.247 27.3234 33.252 27.3234Z" fill="#FAFAFA"/>
<path d="M50.5534 20.1023C50.486 20.1023 50.4527 20.0677 50.4527 19.9986V16.562H49.4313C49.3638 16.562 49.3301 16.5275 49.3301 16.4584V14.9597C49.3301 14.8906 49.3638 14.856 49.4313 14.856H50.4527V11.3545C50.4527 11.2943 50.4864 11.2639 50.5534 11.2639H52.0671C52.1346 11.2639 52.1683 11.2943 52.1683 11.3545V19.9982C52.1683 20.0673 52.1346 20.1018 52.0671 20.1018L50.5534 20.1023ZM48.6993 16.4588C48.6993 16.5279 48.6656 16.5625 48.5985 16.5625H47.4759V19.9991C47.4759 20.0682 47.4422 20.1027 47.3752 20.1027H45.9372C45.8697 20.1027 45.836 20.0682 45.836 19.9991V11.3554C45.836 11.2952 45.8697 11.2649 45.9372 11.2649H47.3752C47.4422 11.2649 47.4759 11.2952 47.4759 11.3554V14.857H48.5985C48.666 14.857 48.6993 14.8915 48.6993 14.9606V16.4588ZM57.832 15.8127V19.9991C57.832 20.0682 57.8024 20.1027 57.7436 20.1027H56.2928C56.2253 20.1027 56.1921 20.0682 56.1921 19.9991V15.8645L53.2153 11.4199C53.1902 11.3769 53.1879 11.3405 53.2093 11.3101C53.2303 11.2803 53.2618 11.2653 53.3037 11.2653H55.0694C55.1114 11.2653 55.141 11.2826 55.1579 11.3171L57.9455 15.5549C57.9792 15.5984 57.9792 15.6371 57.9455 15.6712L57.832 15.8127ZM58.45 14.8953C58.4332 14.9298 58.4063 14.9447 58.368 14.9401C58.3302 14.9359 58.3028 14.9163 58.286 14.8822L57.4282 13.5903C57.3944 13.5558 57.3944 13.5213 57.4282 13.4872L58.8539 11.3162C58.8707 11.2817 58.8958 11.2644 58.9295 11.2644H60.6957C60.7377 11.2644 60.7691 11.2793 60.7901 11.3092C60.8111 11.3395 60.8092 11.376 60.7837 11.4189L58.45 14.8953ZM61.8051 20.1023C61.7377 20.1023 61.7044 20.0677 61.7044 19.9986V11.355C61.7044 11.2947 61.7377 11.2644 61.8051 11.2644H63.281C63.3402 11.2644 63.3694 11.2947 63.3694 11.355V19.9986C63.3694 20.0677 63.3398 20.1023 63.281 20.1023H61.8051ZM67.6707 14.0423C67.6707 14.4559 67.6033 14.8327 67.4688 15.173C67.3344 15.5134 67.1452 15.8019 66.9014 16.0386C66.6575 16.2753 66.3694 16.4583 66.0376 16.5877C65.7054 16.7165 65.3416 16.7814 64.9465 16.7814H64.101C64.034 16.7814 64.0002 16.7469 64.0002 16.6778V15.2179C64.0002 15.1488 64.034 15.1142 64.101 15.1142H64.9715C65.3412 15.1142 65.621 15.0045 65.8102 14.7846C65.9993 14.5652 66.0937 14.3042 66.0937 14.0031C66.0937 13.7187 65.9993 13.4713 65.8102 13.2603C65.621 13.0492 65.3412 12.9437 64.9715 12.9437H64.101C64.034 12.9437 64.0002 12.9092 64.0002 12.8405V11.3545C64.0002 11.2943 64.034 11.2639 64.101 11.2639H64.9465C65.3416 11.2639 65.7054 11.3307 66.0376 11.4642C66.3699 11.5977 66.6575 11.7831 66.9014 12.0198C67.1452 12.2565 67.3344 12.5432 67.4688 12.8788C67.6033 13.215 67.6707 13.5894 67.6707 14.0031V14.0423ZM68.8312 20.1023C68.7637 20.1023 68.7304 20.0677 68.7304 19.9986V11.355C68.7304 11.2947 68.7642 11.2644 68.8312 11.2644H70.3321C70.3996 11.2644 70.4333 11.2947 70.4333 11.355V19.9986C70.4333 20.0677 70.3996 20.1023 70.3321 20.1023H68.8312ZM71.1776 20.1023C71.1101 20.1023 71.0764 20.0677 71.0764 19.9986V18.5131C71.0764 18.444 71.1101 18.4094 71.1776 18.4094H74.4575C74.5249 18.4094 74.5582 18.444 74.5582 18.5131V19.9986C74.5582 20.0677 74.5249 20.1023 74.4575 20.1023H71.1776ZM71.1776 12.9573C71.1101 12.9573 71.0764 12.9227 71.0764 12.8541V11.3554C71.0764 11.2952 71.1101 11.2649 71.1776 11.2649H74.4575C74.5249 11.2649 74.5582 11.2952 74.5582 11.3554V12.8541C74.5582 12.9232 74.5249 12.9573 74.4575 12.9573H71.1776ZM73.6375 14.8565C73.7045 14.8565 73.7382 14.891 73.7382 14.9601V16.4457C73.7382 16.5148 73.7045 16.5494 73.6375 16.5494H71.1776C71.1101 16.5494 71.0764 16.5148 71.0764 16.4457V14.9601C71.0764 14.891 71.1101 14.8565 71.1776 14.8565H73.6375ZM80.638 20.1023C80.5956 20.1023 80.5665 20.085 80.5496 20.0505L78.5692 16.7296H78.3044C78.2456 16.7296 78.216 16.695 78.216 16.6264V15.1791C78.216 15.1105 78.2456 15.0759 78.3044 15.0759H79.5027C79.8645 15.0759 80.1398 14.9681 80.329 14.7529C80.5182 14.5376 80.6125 14.279 80.6125 13.9774C80.6125 13.7015 80.5182 13.4587 80.329 13.2472C80.1398 13.0362 79.8645 12.9307 79.5027 12.9307H78.3044C78.2456 12.9307 78.216 12.8961 78.216 12.827V11.354C78.216 11.2938 78.2456 11.2634 78.3044 11.2634H79.4776C79.8645 11.2634 80.2219 11.3284 80.5496 11.4572C80.8773 11.5861 81.1613 11.7714 81.401 12.0128C81.6408 12.2542 81.8258 12.5445 81.9562 12.8849C82.0865 13.2252 82.1517 13.602 82.1517 14.0152C82.1517 14.6786 81.9899 15.2342 81.6663 15.6819C81.3427 16.1297 80.8905 16.4401 80.3103 16.6124L82.3158 19.9459C82.3413 19.9893 82.3431 20.0257 82.3222 20.0556C82.3012 20.0859 82.2698 20.1009 82.2278 20.1009H80.6385L80.638 20.1023ZM75.9835 20.1023C75.916 20.1023 75.8823 20.0677 75.8823 19.9986V11.355C75.8823 11.2947 75.916 11.2644 75.9835 11.2644H77.4593C77.5263 11.2644 77.5601 11.2947 77.5601 11.355V19.9986C77.5601 20.0677 77.5263 20.1023 77.4593 20.1023H75.9835ZM89.0009 20.1023C88.959 20.1023 88.9335 20.0892 88.9253 20.0635L83.6649 12.3886V11.3419C83.6649 11.2817 83.6987 11.2518 83.7661 11.2518H85.0022C85.0442 11.2518 85.0738 11.2649 85.0907 11.2905L90.4011 19.0948V19.9991C90.4011 20.0682 90.3674 20.1027 90.2999 20.1027L89.0009 20.1023ZM88.7484 15.5414V11.3423C88.7484 11.2821 88.7821 11.2522 88.8491 11.2522H90.2999C90.3674 11.2522 90.4011 11.2821 90.4011 11.3423V17.6349C90.4011 17.6867 90.3779 17.7212 90.3318 17.7385C90.2853 17.7558 90.2457 17.7427 90.212 17.6998L88.7489 15.5419L88.7484 15.5414ZM83.7661 20.1023C83.6987 20.1023 83.6649 20.0677 83.6649 19.9986V13.8485C83.6649 13.7967 83.6882 13.7622 83.7342 13.7449C83.7807 13.7276 83.8204 13.7407 83.8541 13.7836L85.33 15.9284V19.9982C85.33 20.0673 85.2962 20.1018 85.2292 20.1018L83.7661 20.1023ZM98.6382 17.26C98.6382 17.6129 98.5748 17.9621 98.449 18.3062C98.3228 18.6508 98.1377 18.9608 97.8939 19.2367C97.65 19.5122 97.3538 19.7344 97.0046 19.902C96.6555 20.0701 96.2585 20.1541 95.8127 20.1541H95.7621C95.6951 20.1541 95.6614 20.1196 95.6614 20.0509V18.6685C95.6614 18.5994 95.6951 18.5649 95.7621 18.5649H95.8127C95.9641 18.5649 96.1113 18.5345 96.2544 18.4743C96.3975 18.4141 96.5256 18.3277 96.6391 18.2156C96.7526 18.1036 96.8451 17.9701 96.9167 17.8151C96.9878 17.6601 97.0238 17.4878 97.0238 17.2982V14.1716C97.0238 13.8098 96.9167 13.5105 96.7024 13.2733C96.4882 13.0366 96.1915 12.918 95.8127 12.918H95.7621C95.6951 12.918 95.6614 12.8835 95.6614 12.8144V11.3932C95.6614 11.333 95.6951 11.3027 95.7621 11.3027H95.8127C96.2503 11.3027 96.6455 11.389 96.9987 11.5609C97.3519 11.7331 97.6487 11.9549 97.8879 12.2266C98.1277 12.4979 98.3123 12.8037 98.4431 13.144C98.5735 13.4839 98.6386 13.8266 98.6386 14.1711V17.2595L98.6382 17.26ZM94.8793 20.1541C94.4504 20.1541 94.0616 20.0701 93.7124 19.902C93.3633 19.7344 93.0666 19.5122 92.8232 19.2367C92.5793 18.9608 92.3902 18.6512 92.2553 18.3062C92.1208 17.9617 92.0534 17.6129 92.0534 17.26V14.1716C92.0534 13.827 92.1226 13.4844 92.2617 13.1445C92.4002 12.8041 92.5939 12.4983 92.8419 12.2271C93.0898 11.9558 93.3865 11.7341 93.7311 11.5613C94.0762 11.389 94.4586 11.3031 94.8793 11.3031H94.9422C95.0096 11.3031 95.0429 11.3335 95.0429 11.3937V12.8149C95.0429 12.884 95.0092 12.9185 94.9422 12.9185H94.8793C94.6942 12.9185 94.526 12.9531 94.3747 13.0217C94.2234 13.0908 94.0953 13.1832 93.99 13.2995C93.8847 13.4157 93.8031 13.5493 93.7443 13.7001C93.6851 13.8509 93.6559 14.0077 93.6559 14.1716V17.2982C93.6559 17.4794 93.6915 17.647 93.763 17.8025C93.8346 17.9575 93.9267 18.091 94.0406 18.2026C94.1541 18.3146 94.2845 18.4029 94.4312 18.4678C94.5785 18.5322 94.7275 18.5644 94.8793 18.5644H94.9422C95.0096 18.5644 95.0429 18.5989 95.0429 18.668V20.0505C95.0429 20.1196 95.0092 20.1536 94.9422 20.1536L94.8793 20.1541ZM102.347 20.1023C102.296 20.1023 102.262 20.0761 102.246 20.0248L99.6346 11.355C99.6177 11.3293 99.62 11.3031 99.6409 11.2775C99.6619 11.2518 99.6892 11.2387 99.723 11.2387H101.274C101.316 11.2387 101.346 11.2649 101.363 11.3162L103.949 19.973C103.965 20.0075 103.963 20.0379 103.942 20.0635C103.921 20.0892 103.89 20.1023 103.848 20.1023H102.347ZM104.579 19.1204C104.563 19.1718 104.529 19.1979 104.478 19.1979C104.428 19.1979 104.394 19.1718 104.377 19.1204L103.595 16.6007L105.198 11.3162C105.198 11.2644 105.227 11.2387 105.286 11.2387H106.812C106.846 11.2387 106.873 11.2518 106.894 11.2775C106.915 11.3036 106.917 11.3293 106.9 11.355L104.579 19.1204ZM112.93 20.1023C112.887 20.1023 112.858 20.0761 112.841 20.0248L110.255 11.355C110.239 11.3293 110.241 11.3031 110.261 11.2775C110.282 11.2518 110.314 11.2387 110.356 11.2387H111.844C111.895 11.2387 111.928 11.2649 111.945 11.3162L114.569 19.973C114.585 20.0593 114.552 20.1023 114.468 20.1023H112.93ZM109.461 18.5518C109.394 18.7932 109.32 19.0387 109.24 19.2885C109.16 19.5383 109.086 19.7839 109.019 20.0248C109.002 20.0766 108.969 20.1023 108.919 20.1023H107.392C107.35 20.1023 107.319 20.0892 107.298 20.0635C107.277 20.0374 107.275 20.0075 107.291 19.973L109.625 12.2205C109.642 12.1687 109.676 12.143 109.726 12.143C109.776 12.143 109.81 12.1692 109.827 12.2205L110.597 14.7272L109.928 16.8589H111.139C111.19 16.8589 111.224 16.8851 111.24 16.9364L111.682 18.4225C111.699 18.457 111.697 18.4869 111.676 18.5131C111.655 18.5387 111.623 18.5518 111.581 18.5518H109.461ZM120.069 20.1023C120.002 20.1023 119.968 20.0677 119.968 19.9986V11.355C119.968 11.2947 120.002 11.2644 120.069 11.2644H121.558C121.625 11.2644 121.658 11.2947 121.658 11.355V19.9986C121.658 20.0677 121.625 20.1023 121.558 20.1023H120.069ZM122.416 20.1023C122.348 20.1023 122.314 20.0677 122.314 19.9986V18.5131C122.314 18.444 122.348 18.4094 122.416 18.4094H125.683C125.75 18.4094 125.783 18.444 125.783 18.5131V19.9986C125.783 20.0677 125.75 20.1023 125.683 20.1023H122.416ZM126.818 20.1023C126.75 20.1023 126.717 20.0677 126.717 19.9986V11.355C126.717 11.2947 126.751 11.2644 126.818 11.2644H128.306C128.374 11.2644 128.407 11.2947 128.407 11.355V19.9986C128.407 20.0677 128.374 20.1023 128.306 20.1023H126.818ZM129.164 20.1023C129.097 20.1023 129.063 20.0677 129.063 19.9986V18.5131C129.063 18.444 129.097 18.4094 129.164 18.4094H132.431C132.499 18.4094 132.532 18.444 132.532 18.5131V19.9986C132.532 20.0677 132.498 20.1023 132.431 20.1023H129.164ZM136.241 20.1541C135.845 20.1541 135.475 20.0701 135.131 19.902C134.786 19.7344 134.488 19.5122 134.235 19.2367C133.983 18.9608 133.783 18.6512 133.636 18.3062C133.489 17.9617 133.415 17.6129 133.415 17.26V14.1716C133.415 13.827 133.489 13.4844 133.636 13.1445C133.783 12.8041 133.985 12.4983 134.242 12.2271C134.498 11.9558 134.798 11.7341 135.143 11.5613C135.488 11.389 135.854 11.3031 136.241 11.3031H136.304C136.371 11.3031 136.404 11.3335 136.404 11.3937V12.8149C136.404 12.884 136.371 12.9185 136.304 12.9185H136.241C136.114 12.9185 135.98 12.9549 135.837 13.0282C135.694 13.1015 135.561 13.1958 135.44 13.3126C135.318 13.4288 135.217 13.56 135.137 13.7066C135.057 13.8527 135.017 14.0035 135.017 14.159V17.2856C135.017 17.4668 135.057 17.6325 135.137 17.7833C135.217 17.9341 135.318 18.0634 135.44 18.1708C135.561 18.2787 135.694 18.3627 135.837 18.4229C135.98 18.4832 136.115 18.5135 136.241 18.5135H136.304C136.371 18.5135 136.404 18.5481 136.404 18.6167V20.0509C136.404 20.12 136.371 20.1541 136.304 20.1541H136.241ZM140 17.26C140 17.6129 139.926 17.9621 139.779 18.3062C139.632 18.6508 139.432 18.9608 139.18 19.2367C138.927 19.5122 138.629 19.7344 138.284 19.902C137.939 20.0701 137.569 20.1541 137.174 20.1541H137.124C137.056 20.1541 137.022 20.1196 137.022 20.0509V18.6167C137.022 18.5476 137.056 18.5135 137.124 18.5135H137.174C137.3 18.5135 137.434 18.4855 137.577 18.4295C137.72 18.3735 137.851 18.2918 137.969 18.1839C138.086 18.0765 138.185 17.9472 138.265 17.7964C138.345 17.6456 138.385 17.4757 138.385 17.2856V17.1568C138.385 17.0877 138.418 17.0536 138.486 17.0536H139.899C139.966 17.0536 140 17.0882 140 17.1568V17.2604L140 17.26ZM138.486 14.3653C138.418 14.3653 138.385 14.3308 138.385 14.2622V14.1585C138.385 13.9863 138.345 13.8247 138.265 13.6739C138.185 13.5231 138.086 13.3919 137.969 13.2799C137.85 13.1678 137.72 13.0796 137.577 13.0152C137.434 12.9503 137.3 12.9185 137.174 12.9185H137.124C137.056 12.9185 137.022 12.884 137.022 12.8149V11.3937C137.022 11.3335 137.056 11.3031 137.124 11.3031H137.174C137.569 11.3031 137.939 11.3895 138.284 11.5613C138.629 11.7336 138.927 11.9554 139.18 12.2271C139.432 12.4983 139.632 12.8041 139.779 13.1445C139.926 13.4844 140 13.827 140 14.1716V14.2622C140 14.3308 139.966 14.3653 139.898 14.3653H138.486Z" fill="#FAFAFA"/>
<path d="M47.5748 28.266C47.3994 28.3748 47.1874 28.4304 46.9376 28.4336C46.7685 28.4355 46.6154 28.4056 46.48 28.344C46.3447 28.2819 46.2293 28.1965 46.1332 28.0877C46.0379 27.978 45.965 27.8491 45.9144 27.6997C45.8629 27.5512 45.8378 27.3892 45.8378 27.2142C45.8378 27.0326 45.8647 26.8626 45.9189 26.7025C45.9723 26.5419 46.0516 26.4032 46.1546 26.2837C46.2576 26.1651 46.3838 26.0708 46.5333 26.0012C46.6819 25.9317 46.8529 25.8971 47.0461 25.8971C47.2416 25.8971 47.4203 25.9359 47.5817 26.0129V26.3341C47.4094 26.2174 47.2225 26.1581 47.0215 26.1581C46.8816 26.1581 46.7562 26.1856 46.6468 26.2398C46.5374 26.2944 46.4449 26.3686 46.3702 26.462C46.2954 26.5559 46.2385 26.6656 46.1993 26.7912C46.1596 26.9163 46.14 27.0494 46.14 27.1899C46.14 27.3187 46.1564 27.4434 46.1897 27.5606C46.2229 27.6792 46.274 27.7833 46.3424 27.8743C46.4107 27.9644 46.4973 28.0373 46.6022 28.0905C46.7075 28.1446 46.8305 28.1713 46.9732 28.1713C47.1952 28.1713 47.3953 28.1036 47.5739 27.9672V28.2651L47.5748 28.266ZM51.5589 28.4336C51.3843 28.4336 51.2267 28.4037 51.0881 28.344C50.9486 28.2833 50.8297 28.1988 50.7312 28.0891C50.6327 27.9794 50.558 27.8486 50.506 27.695C50.4532 27.5419 50.4272 27.3724 50.4272 27.1857C50.4272 26.9845 50.455 26.8033 50.5097 26.6446C50.5653 26.4844 50.6446 26.35 50.7462 26.2389C50.8483 26.1273 50.9723 26.0428 51.1163 25.9849C51.2613 25.9261 51.4226 25.8971 51.6009 25.8971C51.7718 25.8971 51.9254 25.9261 52.0617 25.9835C52.1988 26.0409 52.3146 26.125 52.4099 26.2328C52.5051 26.3416 52.5785 26.4751 52.6287 26.6306C52.6797 26.787 52.7048 26.9644 52.7048 27.1633C52.7048 27.3528 52.6779 27.5246 52.6255 27.6801C52.5726 27.8356 52.4974 27.9691 52.3985 28.0811C52.3 28.1937 52.1802 28.2796 52.0384 28.3417C51.8976 28.4028 51.738 28.4336 51.5589 28.4336ZM51.5826 26.1586C51.4527 26.1586 51.336 26.181 51.2317 26.2272C51.1268 26.2729 51.037 26.3392 50.9623 26.4275C50.8875 26.5143 50.8301 26.6217 50.79 26.7492C50.7499 26.8757 50.7303 27.0199 50.7303 27.1805C50.7303 27.3323 50.7499 27.4686 50.79 27.5895C50.8301 27.7114 50.8871 27.8155 50.9605 27.9023C51.0334 27.9887 51.1227 28.0555 51.2271 28.1012C51.3319 28.1479 51.4482 28.1717 51.5785 28.1717C51.7107 28.1717 51.8283 28.1493 51.9295 28.104C52.0311 28.0597 52.1168 27.9943 52.1879 27.9079C52.259 27.8216 52.3123 27.717 52.3488 27.5914C52.3853 27.4672 52.403 27.3253 52.403 27.1656C52.403 26.8397 52.3319 26.5895 52.1902 26.4167C52.0484 26.244 51.8461 26.1576 51.5831 26.1576L51.5826 26.1586ZM57.3534 28.3757V26.9798C57.3534 26.4322 57.1606 26.1586 56.7736 26.1586C56.6715 26.1586 56.5763 26.1796 56.4883 26.2216C56.4008 26.2636 56.3256 26.321 56.2618 26.3953C56.1984 26.4695 56.1483 26.5573 56.1132 26.659C56.0767 26.7608 56.0585 26.8715 56.0585 26.9891V28.3757H55.7609V25.9555H56.0585V26.3752H56.0681C56.2431 26.0563 56.507 25.8976 56.858 25.8976C57.1164 25.8976 57.3133 25.983 57.4487 26.1548C57.5831 26.3266 57.651 26.575 57.651 26.9004V28.3762H57.353L57.3534 28.3757ZM60.6839 27.9411C60.7285 27.9775 60.7769 28.0097 60.8288 28.0377C60.8808 28.0657 60.935 28.09 60.9902 28.111C61.0453 28.1316 61.1005 28.1465 61.1575 28.1572C61.2135 28.1675 61.2664 28.1726 61.3174 28.1726C61.667 28.1726 61.8421 28.0377 61.8421 27.7688C61.8421 27.7076 61.8293 27.6544 61.8051 27.6091C61.7805 27.5639 61.7454 27.5228 61.6998 27.4859C61.6534 27.4485 61.5982 27.4149 61.5335 27.3832C61.4688 27.3519 61.3954 27.3187 61.3142 27.2837C61.2049 27.238 61.111 27.1908 61.0321 27.1441C60.9542 27.0965 60.8895 27.0447 60.8384 26.9891C60.7878 26.9331 60.7504 26.8715 60.7258 26.8042C60.7012 26.7375 60.6889 26.6609 60.6889 26.576C60.6889 26.4686 60.7117 26.3729 60.7564 26.2897C60.8019 26.2057 60.8626 26.1352 60.9391 26.0769C61.0166 26.019 61.1046 25.9737 61.2044 25.9429C61.3051 25.9121 61.4109 25.8971 61.5212 25.8971C61.7254 25.8971 61.9022 25.9368 62.0545 26.0148V26.3336C61.8781 26.2164 61.6875 26.1581 61.4833 26.1581C61.41 26.1581 61.3434 26.1679 61.2823 26.1866C61.2217 26.2057 61.1698 26.2323 61.1265 26.2669C61.0841 26.3019 61.0499 26.3439 61.0266 26.392C61.0029 26.4405 60.9911 26.4938 60.9911 26.5517C60.9911 26.6124 61.0007 26.6646 61.0184 26.709C61.0371 26.7543 61.0658 26.7954 61.1055 26.8318C61.1447 26.8673 61.1953 26.9018 61.2573 26.9359C61.3197 26.9686 61.3949 27.0041 61.4847 27.0423C61.5982 27.089 61.6967 27.1357 61.7792 27.1829C61.8626 27.2296 61.9309 27.2795 61.9847 27.3346C62.0385 27.3888 62.0786 27.4495 62.1046 27.5172C62.1306 27.5839 62.1442 27.6614 62.1442 27.7492C62.1442 27.858 62.1219 27.956 62.0791 28.0405C62.0349 28.126 61.9742 28.1979 61.8972 28.2558C61.8197 28.3141 61.7286 28.3585 61.6246 28.3883C61.5207 28.4182 61.4072 28.4332 61.2846 28.4332C61.0467 28.4332 60.8466 28.3814 60.6843 28.2791V27.9401L60.6839 27.9411ZM66.2031 28.3459C66.1014 28.3986 65.9911 28.4243 65.8713 28.4243C65.4911 28.4243 65.3006 28.1993 65.3006 27.7492V26.2221H64.8845V25.9559H65.3006V25.3481L65.5982 25.2491V25.9559H66.2035V26.2221H65.5982V27.7011C65.5982 27.865 65.6242 27.9826 65.6762 28.0555C65.7281 28.1274 65.8157 28.1633 65.9401 28.1633C66.0312 28.1633 66.1192 28.1348 66.2035 28.0788V28.3468L66.2031 28.3459ZM70.3203 26.2659C70.251 26.2137 70.1616 26.188 70.0522 26.188C69.9743 26.188 69.905 26.2034 69.8453 26.2337C69.7847 26.2641 69.7327 26.3056 69.6867 26.3579C69.6411 26.4097 69.6033 26.47 69.5718 26.5386C69.5395 26.6072 69.5144 26.6782 69.4953 26.7524C69.4757 26.8267 69.4625 26.9018 69.4538 26.977C69.4451 27.0526 69.441 27.1245 69.441 27.1922V28.3757H69.148V25.9555H69.441V26.4742H69.4506C69.4784 26.3864 69.513 26.3066 69.5554 26.237C69.5978 26.167 69.6466 26.1067 69.7022 26.0596C69.7569 26.011 69.818 25.9751 69.8831 25.9499C69.9483 25.9247 70.0171 25.9121 70.0892 25.9121C70.1375 25.9121 70.1799 25.9153 70.2177 25.9219C70.2546 25.9275 70.2893 25.9373 70.3198 25.9503V26.2664L70.3203 26.2659ZM74.7501 28.3757V27.9658H74.7405C74.5806 28.2782 74.3326 28.4336 73.9953 28.4336C73.4338 28.4336 73.1525 28.0821 73.1525 27.3794V25.9555H73.4506V27.3215C73.4506 27.6119 73.5012 27.8258 73.602 27.9649C73.7018 28.1036 73.8563 28.1731 74.0637 28.1731C74.1653 28.1731 74.2574 28.153 74.3417 28.1124C74.4251 28.0723 74.498 28.0158 74.5587 27.942C74.6193 27.8692 74.6667 27.7814 74.7004 27.6792C74.7341 27.5769 74.751 27.463 74.751 27.3388V25.9559H75.0486V28.3762H74.751L74.7501 28.3757ZM79.834 28.266C79.6585 28.3748 79.4466 28.4304 79.1968 28.4336C79.0277 28.4355 78.8746 28.4056 78.7392 28.344C78.6038 28.2819 78.4885 28.1965 78.3923 28.0877C78.2975 27.978 78.2242 27.8491 78.1736 27.6997C78.1225 27.5512 78.0974 27.3892 78.0974 27.2142C78.0974 27.0326 78.1243 26.8626 78.1786 26.7025C78.2319 26.5419 78.3112 26.4032 78.4138 26.2837C78.5168 26.1651 78.643 26.0708 78.7925 26.0012C78.9416 25.9317 79.1125 25.8971 79.3053 25.8971C79.5008 25.8971 79.6795 25.9359 79.8413 26.0129V26.3341C79.669 26.2174 79.4821 26.1581 79.2811 26.1581C79.1412 26.1581 79.0159 26.1856 78.9065 26.2398C78.7971 26.2944 78.7046 26.3686 78.6298 26.462C78.5546 26.5559 78.4981 26.6656 78.4589 26.7912C78.4197 26.9163 78.3996 27.0494 78.3996 27.1899C78.3996 27.3187 78.416 27.4434 78.4493 27.5606C78.4821 27.6792 78.5336 27.7833 78.602 27.8743C78.6704 27.9644 78.757 28.0373 78.8618 28.0905C78.9676 28.1446 79.0906 28.1713 79.2328 28.1713C79.4548 28.1713 79.6549 28.1036 79.834 27.9672V28.266ZM83.8682 28.3459C83.7666 28.3986 83.6563 28.4243 83.5364 28.4243C83.1558 28.4243 82.9653 28.1993 82.9653 27.7492V26.2221H82.5496V25.9559H82.9653V25.3481L83.2629 25.2491V25.9559H83.8682V26.2221H83.2629V27.7011C83.2629 27.865 83.2889 27.9826 83.3409 28.0555C83.3928 28.1274 83.4804 28.1633 83.6048 28.1633C83.6959 28.1633 83.7839 28.1348 83.8682 28.0788V28.3468V28.3459ZM86.9603 25.3457C86.9029 25.3457 86.8541 25.3257 86.8122 25.2846C86.7698 25.2435 86.7493 25.1912 86.7493 25.1282C86.7493 25.067 86.7698 25.0157 86.8122 24.9755C86.8541 24.9354 86.9029 24.9148 86.9603 24.9148C86.9895 24.9148 87.0178 24.92 87.0437 24.9302C87.0702 24.9405 87.0925 24.9554 87.1121 24.9736C87.1317 24.9932 87.1468 25.0157 87.1586 25.0413C87.1705 25.0675 87.1759 25.096 87.1759 25.1277C87.1759 25.1576 87.1705 25.1856 87.1591 25.2131C87.149 25.2397 87.1331 25.2631 87.1126 25.2827C87.093 25.3028 87.0697 25.3182 87.0446 25.3285C87.0187 25.3397 86.9909 25.3457 86.9603 25.3457ZM86.8136 28.3762V25.9559H87.1116V28.3762H86.8136ZM91.2872 28.4341C91.1126 28.4341 90.9549 28.4042 90.8163 28.3445C90.6769 28.2838 90.5579 28.1993 90.4594 28.0896C90.361 27.9798 90.2862 27.8491 90.2343 27.6955C90.1814 27.5424 90.1554 27.3729 90.1554 27.1861C90.1554 26.9849 90.1832 26.8038 90.2379 26.6451C90.294 26.4849 90.3728 26.3505 90.4745 26.2393C90.5766 26.1278 90.7006 26.0432 90.8446 25.9853C90.9895 25.9265 91.1509 25.8976 91.3291 25.8976C91.5 25.8976 91.6536 25.9265 91.7899 25.984C91.9271 26.0414 92.0429 26.1254 92.1381 26.2333C92.2334 26.342 92.3068 26.4756 92.3569 26.631C92.408 26.7874 92.433 26.9649 92.433 27.1637C92.433 27.3533 92.4061 27.5251 92.3537 27.6806C92.3008 27.836 92.2256 27.9696 92.1267 28.0816C92.0283 28.1941 91.9084 28.28 91.7667 28.3421C91.6258 28.4033 91.4663 28.4341 91.2872 28.4341ZM91.3109 26.159C91.181 26.159 91.0643 26.1815 90.9599 26.2277C90.8551 26.2734 90.7653 26.3397 90.6905 26.4279C90.6158 26.5148 90.5584 26.6222 90.5182 26.7496C90.4781 26.8761 90.4585 27.0204 90.4585 27.181C90.4585 27.3328 90.4781 27.4691 90.5182 27.59C90.5584 27.7118 90.6153 27.816 90.6887 27.9028C90.7616 27.9892 90.851 28.0559 90.9553 28.1017C91.0602 28.1484 91.1769 28.1722 91.3068 28.1722C91.4389 28.1722 91.5565 28.1498 91.6577 28.1045C91.7594 28.0601 91.8451 27.9948 91.9162 27.9084C91.9873 27.822 92.0406 27.7174 92.077 27.5919C92.1135 27.4677 92.1313 27.3257 92.1313 27.1661C92.1313 26.8402 92.0602 26.5899 91.9184 26.4172C91.7767 26.2445 91.5739 26.1581 91.3109 26.1581V26.159ZM97.0816 28.3762V26.9803C97.0816 26.4326 96.8889 26.159 96.5019 26.159C96.3998 26.159 96.3045 26.18 96.2166 26.2221C96.1291 26.2641 96.0538 26.3215 95.99 26.3957C95.9267 26.47 95.8765 26.5578 95.8414 26.6595C95.805 26.7613 95.7868 26.8719 95.7868 26.9896V28.3762H95.4891V25.9559H95.7868V26.3757H95.7963C95.9714 26.0568 96.2353 25.8981 96.5862 25.8981C96.8447 25.8981 97.0416 25.9835 97.1769 26.1553C97.3118 26.3271 97.3793 26.5755 97.3793 26.9009V28.3767H97.0812L97.0816 28.3762ZM108.59 28.2665C108.414 28.3753 108.203 28.4308 107.953 28.4341C107.784 28.436 107.631 28.4061 107.496 28.3445C107.36 28.2824 107.245 28.1969 107.149 28.0881C107.054 27.9784 106.981 27.8496 106.93 27.7002C106.879 27.5517 106.854 27.3897 106.854 27.2146C106.854 27.033 106.881 26.8631 106.935 26.7029C106.989 26.5423 107.068 26.4037 107.171 26.2842C107.274 26.1656 107.4 26.0713 107.549 26.0017C107.698 25.9321 107.869 25.8976 108.062 25.8976C108.257 25.8976 108.436 25.9363 108.598 26.0134V26.3346C108.425 26.2178 108.239 26.1586 108.038 26.1586C107.898 26.1586 107.772 26.1861 107.663 26.2403C107.553 26.2949 107.461 26.3691 107.386 26.4625C107.311 26.5563 107.254 26.666 107.215 26.7916C107.176 26.9168 107.156 27.0498 107.156 27.1903C107.156 27.3192 107.172 27.4439 107.206 27.561C107.239 27.6796 107.29 27.7837 107.358 27.8748C107.427 27.9649 107.513 28.0377 107.618 28.0909C107.724 28.1451 107.847 28.1717 107.989 28.1717C108.211 28.1717 108.411 28.104 108.59 27.9677V28.2665ZM112.575 28.4341C112.4 28.4341 112.242 28.4042 112.104 28.3445C111.964 28.2838 111.845 28.1993 111.747 28.0896C111.648 27.9798 111.574 27.8491 111.522 27.6955C111.469 27.5424 111.443 27.3729 111.443 27.1861C111.443 26.9849 111.471 26.8038 111.526 26.6451C111.581 26.4849 111.661 26.3505 111.762 26.2393C111.864 26.1278 111.988 26.0432 112.132 25.9853C112.277 25.9265 112.439 25.8976 112.617 25.8976C112.788 25.8976 112.941 25.9265 113.078 25.984C113.214 26.0414 113.331 26.1254 113.426 26.2333C113.521 26.342 113.595 26.4756 113.645 26.631C113.696 26.7874 113.721 26.9649 113.721 27.1637C113.721 27.3533 113.694 27.5251 113.642 27.6806C113.589 27.836 113.513 27.9696 113.415 28.0816C113.316 28.1941 113.197 28.28 113.055 28.3421C112.914 28.4033 112.754 28.4341 112.575 28.4341H112.575ZM112.598 26.159C112.468 26.159 112.352 26.1815 112.247 26.2277C112.142 26.2734 112.053 26.3397 111.978 26.4279C111.903 26.5148 111.845 26.6222 111.806 26.7496C111.765 26.8761 111.746 27.0204 111.746 27.181C111.746 27.3328 111.765 27.4691 111.806 27.59C111.846 27.7118 111.903 27.816 111.976 27.9028C112.049 27.9892 112.138 28.0559 112.243 28.1017C112.348 28.1484 112.464 28.1722 112.594 28.1722C112.727 28.1722 112.844 28.1498 112.945 28.1045C113.047 28.0601 113.132 27.9948 113.203 27.9084C113.275 27.822 113.328 27.7174 113.364 27.5919C113.4 27.4677 113.419 27.3257 113.419 27.1661C113.419 26.8402 113.348 26.5899 113.206 26.4172C113.064 26.2445 112.862 26.1581 112.599 26.1581L112.598 26.159ZM119.744 28.3762V26.9513C119.744 26.8071 119.733 26.6843 119.712 26.5834C119.69 26.483 119.657 26.4018 119.611 26.3388C119.566 26.2758 119.508 26.23 119.439 26.2015C119.369 26.1735 119.286 26.1586 119.189 26.1586C119.103 26.1586 119.022 26.1796 118.945 26.2216C118.868 26.2636 118.802 26.321 118.743 26.3943C118.685 26.4676 118.64 26.554 118.607 26.6534C118.574 26.7524 118.558 26.8598 118.558 26.9751V28.3757H118.26V26.92C118.26 26.4125 118.071 26.1586 117.692 26.1586C117.605 26.1586 117.523 26.1786 117.449 26.2193C117.373 26.2599 117.308 26.3154 117.252 26.3878C117.196 26.4606 117.152 26.5475 117.121 26.6502C117.09 26.752 117.074 26.864 117.074 26.9868V28.3762H116.776V25.9559H117.074V26.3481H117.083C117.249 26.0479 117.491 25.8981 117.809 25.8981C117.891 25.8981 117.97 25.9106 118.044 25.9368C118.117 25.9634 118.183 25.9998 118.242 26.0456C118.301 26.0927 118.35 26.1483 118.393 26.2127C118.436 26.2781 118.467 26.349 118.489 26.4265C118.571 26.2538 118.679 26.1231 118.812 26.033C118.946 25.9433 119.096 25.8981 119.263 25.8981C119.781 25.8981 120.041 26.2258 120.041 26.8813V28.3762H119.743H119.744ZM123.505 27.9873V29.4897H123.207V25.9559H123.505V26.4181H123.514C123.601 26.2496 123.718 26.1207 123.864 26.032C124.011 25.9424 124.177 25.8981 124.36 25.8981C124.51 25.8981 124.645 25.9261 124.764 25.9821C124.883 26.0381 124.983 26.1175 125.065 26.2197C125.147 26.3224 125.21 26.4466 125.254 26.5932C125.297 26.7403 125.319 26.9046 125.319 27.0876C125.319 27.2884 125.295 27.4709 125.246 27.6353C125.196 27.7996 125.126 27.942 125.034 28.0606C124.942 28.1783 124.83 28.2702 124.7 28.3356C124.569 28.401 124.421 28.4341 124.257 28.4341C123.925 28.4341 123.678 28.2852 123.514 27.9873H123.505ZM123.505 27.3682C123.505 27.4789 123.523 27.5821 123.559 27.6787C123.595 27.7763 123.645 27.8612 123.71 27.9345C123.774 28.0078 123.852 28.0662 123.943 28.1092C124.034 28.1521 124.136 28.1731 124.246 28.1731C124.364 28.1731 124.47 28.147 124.566 28.0966C124.661 28.0447 124.742 27.9724 124.809 27.8771C124.875 27.7828 124.927 27.668 124.962 27.534C124.999 27.4 125.017 27.2501 125.017 27.0844C125.017 26.9424 125 26.8141 124.966 26.6997C124.932 26.5853 124.884 26.4886 124.822 26.4079C124.76 26.3271 124.685 26.266 124.597 26.223C124.509 26.18 124.411 26.159 124.301 26.159C124.178 26.159 124.067 26.1824 123.969 26.2295C123.871 26.2753 123.787 26.3392 123.719 26.4195C123.649 26.4994 123.596 26.5942 123.559 26.702C123.522 26.8098 123.504 26.9247 123.504 27.0465L123.505 27.3682ZM129.672 28.3762V27.9453H129.662C129.586 28.1003 129.48 28.2207 129.347 28.3062C129.214 28.3916 129.064 28.4341 128.896 28.4341C128.782 28.4341 128.679 28.4173 128.588 28.3842C128.496 28.351 128.419 28.3043 128.355 28.2441C128.29 28.1829 128.241 28.1101 128.207 28.0247C128.172 27.9392 128.155 27.8454 128.155 27.7422C128.155 27.5228 128.221 27.3477 128.353 27.2179C128.486 27.0872 128.685 27.0022 128.953 26.963L129.672 26.8565C129.672 26.392 129.495 26.1595 129.142 26.1595C128.865 26.1595 128.608 26.2627 128.372 26.4695V26.1385C128.422 26.103 128.478 26.0699 128.54 26.0409C128.603 26.012 128.669 25.9867 128.738 25.9648C128.808 25.9438 128.879 25.9275 128.952 25.9153C129.027 25.9032 129.097 25.8976 129.168 25.8976C129.432 25.8976 129.632 25.9732 129.766 26.124C129.901 26.2757 129.969 26.5008 129.969 26.801V28.3757H129.671L129.672 28.3762ZM129.061 27.2006C128.954 27.216 128.864 27.2352 128.788 27.2594C128.712 27.2828 128.65 27.3155 128.601 27.3556C128.551 27.3958 128.514 27.4453 128.492 27.5041C128.469 27.5639 128.457 27.6362 128.457 27.7235C128.457 27.7879 128.468 27.8477 128.491 27.9033C128.513 27.9579 128.545 28.0055 128.588 28.0461C128.631 28.0863 128.682 28.118 128.743 28.1395C128.804 28.161 128.873 28.1726 128.95 28.1726C129.055 28.1726 129.151 28.1526 129.24 28.111C129.327 28.0699 129.403 28.013 129.467 27.9411C129.531 27.8682 129.581 27.7809 129.618 27.6806C129.654 27.5797 129.672 27.47 129.672 27.3514V27.1124L129.061 27.2006ZM134.726 28.3762V26.9803C134.726 26.4326 134.533 26.159 134.146 26.159C134.044 26.159 133.949 26.18 133.861 26.2221C133.773 26.2641 133.698 26.3215 133.634 26.3957C133.571 26.47 133.52 26.5578 133.485 26.6595C133.449 26.7613 133.431 26.8719 133.431 26.9896V28.3762H133.133V25.9559H133.431V26.3757H133.441C133.615 26.0568 133.88 25.8981 134.231 25.8981C134.489 25.8981 134.686 25.9835 134.821 26.1553C134.956 26.3271 135.024 26.5755 135.024 26.9009V28.3767L134.726 28.3762ZM138.871 28.8169C138.778 29.0532 138.673 29.2283 138.552 29.3426C138.432 29.4566 138.287 29.5135 138.116 29.5135C138.031 29.5135 137.96 29.5032 137.901 29.4827V29.1998C137.935 29.2128 137.969 29.2217 138.004 29.2282C138.038 29.2343 138.074 29.2376 138.108 29.2376C138.206 29.2376 138.29 29.2063 138.361 29.1442C138.433 29.0821 138.495 28.9878 138.546 28.8618L138.751 28.3645L137.844 25.9555H138.171L138.847 27.8725C138.856 27.8986 138.865 27.9266 138.874 27.9588C138.882 27.991 138.89 28.0237 138.898 28.055H138.909C138.917 28.0284 138.924 28.0008 138.931 27.9738C138.938 27.9462 138.948 27.9154 138.96 27.8827L139.678 25.9559H139.989L138.871 28.8169Z" fill="#FAFAFA"/>
</svg>
