<svg width="35" height="35" viewBox="0 0 35 35" fill="none" xmlns="http://www.w3.org/2000/svg">
<path d="M17.5 2.91669C9.72712 9.5521 5.83337 15.2834 5.83337 20.125C5.83337 27.3875 11.375 32.0834 17.5 32.0834C23.625 32.0834 29.1667 27.3875 29.1667 20.125C29.1667 15.2834 25.273 9.5521 17.5 2.91669ZM17.5 29.1667C12.6146 29.1667 8.75004 25.4188 8.75004 20.125C8.75004 16.7125 11.5938 12.1917 17.5 6.79585C23.4063 12.1917 26.25 16.6979 26.25 20.125C26.25 25.4188 22.3855 29.1667 17.5 29.1667ZM11.4188 20.4167C11.9584 20.4167 12.3959 20.7959 12.498 21.3209C13.0959 24.5584 15.823 25.6667 17.8063 25.5063C18.4334 25.4771 18.9584 25.9729 18.9584 26.6C18.9584 27.1834 18.4917 27.6646 17.9084 27.6938C14.8021 27.8834 11.1709 26.1042 10.3396 21.6854C10.223 21.0292 10.748 20.4167 11.4188 20.4167Z" fill="#EF6C00"/>
</svg>
