<svg width="35" height="35" viewBox="0 0 35 35" fill="none" xmlns="http://www.w3.org/2000/svg">
<path d="M29.0646 12.1771L23.8146 14.6271L20.4167 11.2292V9.18749L23.8146 5.78957L29.0646 8.23957C29.6188 8.50207 30.2604 8.25416 30.5229 7.71457C30.7854 7.16041 30.5375 6.51874 29.9979 6.25624L24.2812 3.58749C23.7271 3.32499 23.0708 3.44166 22.6333 3.87916L20.0958 6.41666C19.8333 6.06666 19.425 5.83332 18.9583 5.83332C18.1563 5.83332 17.5 6.48957 17.5 7.29166V8.74999H12.8625C12.25 7.05832 10.6458 5.83332 8.75 5.83332C6.32917 5.83332 4.375 7.78749 4.375 10.2083C4.375 11.8125 5.25 13.1979 6.53333 13.9708L10.325 26.25H8.75C7.14583 26.25 5.83333 27.5625 5.83333 29.1667V30.625H24.7917V29.1667C24.7917 27.5625 23.4792 26.25 21.875 26.25H19.5125L12.2646 12.7896C12.5125 12.4396 12.7167 12.075 12.8625 11.6667H17.5V13.125C17.5 13.9271 18.1563 14.5833 18.9583 14.5833C19.425 14.5833 19.8333 14.35 20.0958 14L22.6333 16.5375C23.0708 16.975 23.7271 17.0917 24.2812 16.8292L29.9979 14.1604C30.5521 13.8979 30.7854 13.2562 30.5229 12.7021C30.2604 12.1625 29.6188 11.9146 29.0646 12.1771ZM8.75 11.6667C7.94792 11.6667 7.29167 11.0104 7.29167 10.2083C7.29167 9.40624 7.94792 8.74999 8.75 8.74999C9.55208 8.74999 10.2083 9.40624 10.2083 10.2083C10.2083 11.0104 9.55208 11.6667 8.75 11.6667ZM16.2021 26.25H13.3729L9.78542 14.5833H9.93125L16.2021 26.25Z" fill="#EF6C00"/>
</svg>
